<svg version="1.0" xmlns="http://www.w3.org/2000/svg" viewBox="0 0 512 512"><path fill="#fff" d="M45.2 2C34.3 4.9 26.5 9.4 18 18 9.3 26.6 4.9 34.3 2 45.6 0 53.2 0 57.4 0 256s0 202.8 2 210.4c2.9 11.3 7.3 19 16 27.7 5.3 5.4 9.6 8.6 14.7 11.2 14.6 7.2 3.4 6.8 183.8 6.5l162-.3 6.5-2.3c24.2-8.8 39.5-29 40.8-54.2 1.4-29.4-18.5-54.9-48-61.4l-2.8-.6V199l6.3-4.6c9.7-7.2 28.4-15.7 50.2-23 24.2-8 29.6-10.7 39.5-20.1 19.9-18.7 33.6-50.1 39.5-90.4 2.1-14.5 2-16.5-1-19.4-3.3-3.4-6.8-3.2-15.9 1-18 8.4-36.5 12.7-55 12.9l-12 .1-1.2-6.5C421 25.4 402.6 6.3 379.5 1.5c-6-1.3-30-1.5-167-1.4C58.2.1 52.2.2 45.2 2zM75 20c8 3.1 15.6 9.3 20.1 16.3 5 7.7 6.9 14.2 6.9 23.4 0 14.5-6.5 27-18.6 35.3-4.9 3.5-15 7-19.9 7-10.6 0-16 8.5-9.5 15 2 2 3.7 2 83 2 44.6 0 81 .2 81 .5 0 .2-2.2 3.7-4.9 7.7-10.8 16.2-19.5 37.5-22.7 55.8-2.5 14.5-1.5 39 2.1 52.9 1.5 5.6 3.5 12.1 4.4 14.4l1.7 4.1-8.1 16c-9.5 19-17.3 39-22.3 57.4l-3.6 13.2h-44.5c-42.2 0-44.8.1-47.8 1.9-3.9 2.4-5.1 6.7-2.9 10.9.8 1.6 2.3 3.2 3.1 3.6.9.3 24.3.6 52 .6h50.3l10.9-7.8c22.2-16 30.3-22.2 31.7-24.4.8-1.3 1.7-6.2 2.1-11.3.7-9.7 3.4-31.7 4-32.3.2-.2 3.7.8 7.7 2.2 36.4 12.5 81.6-2.2 107.8-35.3 3.6-4.5 9.3-13 12.8-18.9l6.2-10.6V393H207c-149 0-151 0-153 2-6.5 6.5-1.1 15 9.5 15 4.4 0 14.9 3.4 19 6.2 8.6 6 14.3 13.4 17.5 22.9 1.8 5.2 2.1 8.1 1.8 15.5-.3 7.9-.8 10-3.8 16-12.8 26.1-46.4 32.3-67.3 12.5-3-2.8-6.6-7.3-8-9.9-6-11.1-5.7 2.1-5.7-217.2 0-219.3-.3-206.1 5.7-217.2C25.8 33 34 25 39.8 22.1 50.6 16.6 64.3 15.8 75 20zm300.9-1.9c16 3.7 29.9 17.8 32.7 33.3l.7 3.9-9.4-.7c-36.7-2.6-44.6-2.8-60.8-1.7-20.2 1.3-30.7 3.1-42.9 7-20.4 6.7-37.8 17.2-54 32.6l-10 9.5H101.9l3.9-4.8c9.2-11 13.2-22.3 13.2-36.9 0-15.1-4-26.8-12.9-38.1L102 17h134.7c87.3 0 136.3.4 139.2 1.1zm116.6 47.6c-1.7 9.7-6.8 28.3-10.5 37.5-7.4 19.1-18.4 34.4-30.1 41.9-2.8 1.8-13.1 5.9-23.7 9.4-10.3 3.5-23.9 8.6-30.2 11.5-6.3 2.9-12.9 5.5-14.6 5.7-4.6.7-10.5-1.3-17-5.7-6.9-4.7-9.2-4.9-13.3-1.4-6.2 5.2-2.8 12.9 8.1 18.5l4 2-6.3 6.2c-7.8 7.7-13.7 15.6-19.4 26.1-2.4 4.5-5.5 9.6-6.8 11.5-2.3 3.4-2.4 3.4-9.3 3.2-9.4-.3-20.1-2.6-31-6.7-12.3-4.6-15.2-4.4-18.2 1.3-3.1 5.8.6 10.5 11.3 14.6 8.9 3.4 21.8 6.7 26.2 6.7 1.8 0 3.3.5 3.3 1 0 1.8-12.4 10.2-21.5 14.6-11.5 5.4-18.7 7.3-30.6 8.1-10.7.6-21.4-1.2-30.7-5.3-6-2.6-5.8-1.2-1.5-16.2 4.9-17.4 8-23.8 16.2-33.5 17.9-21.4 37.8-41 54.6-53.7 33-25.1 64.4-37.5 116.8-46.3 22.3-3.8 23.9-4.5 23.9-11.3 0-4.4-3.7-8.4-7.7-8.4-4.9 0-38.2 6.1-52 9.5-35.3 8.7-62.7 21.5-90 42.1-24.8 18.6-53 48-74.8 77.6-4.4 6-7.4 9.3-7.8 8.5-1.6-2.9-3.9-20.9-3.9-30.2 0-22 6.2-43.9 17.6-62.3l4.8-7.6 1.2 6.6c1.6 8.4 2.6 10.3 6.4 11.6 3.9 1.4 8.3-.1 10-3.3 1.1-2 1.1-4.5 0-13.9-.7-6.3-1-14-.7-17.2.7-5.8.8-6 8.9-13.7 8.6-8.1 20.3-16.5 29.8-21.2 5.9-3 18.1-7.8 18.5-7.3.2.2-.3 2.8-1.1 5.8-1.8 6.6-2.9 19.8-2 23.4.7 2.7 5.1 5.6 8.5 5.6 1.1 0 3.2-1 4.7-2.3 2.3-2 2.7-3.4 3.5-10.8.9-9.3 3-17.5 6.1-23.1 1.8-3.2 2.7-3.7 6.7-4.2 10.8-1.2 24.7-1.7 31-1.1l6.9.7-4.1 5.9c-5.9 8.5-5.4 14.5 1.2 17 4.9 1.9 7.9.2 12.7-7.2 2.5-3.8 6.7-8.7 9.2-11 4.1-3.6 5.1-4 8.2-3.5 1.9.3 12.1.8 22.5 1.2 28 .9 47.4-1.3 66.5-7.6 4.7-1.5 8.9-2.8 9.3-2.9.4-.1.5 1.6.2 3.6zM206 282.1c-.5 2.5-1.4 9.4-2 15.5-2.1 21.2-1.2 18.8-9.6 25.1-4.1 3.1-7.7 5.3-8 5-.7-.6 4.5-16 9.1-27.2 4.9-11.9 10.5-23.8 11-23.4.2.2 0 2.5-.5 5zm174.2 129.8c7.4 2.6 12.4 5.8 18.1 12 21.5 23.1 10 61.5-20.8 69.5-5.2 1.4-22.1 1.6-140.7 1.6H102l4.1-5.2c8.8-11.2 12.9-23.1 12.9-37.5 0-14.6-4.8-28.2-13.3-37.9l-3.9-4.4h136.5c131.3 0 136.6.1 141.9 1.9z"/><path fill="#fff" d="M71.2 173c-4.4 4.1-3.5 11 1.8 13.7 3.5 1.8 88.7 1.9 92.5.1 3.3-1.5 5.8-6.2 4.9-9.1-.3-1.2-1.6-3.2-2.7-4.5l-2-2.2h-46.2c-45 0-46.2.1-48.3 2zM72.3 214.9c-3.9 2.4-5.1 6.7-2.9 10.9.8 1.6 2.3 3.2 3.1 3.6.9.3 22.2.6 47.4.6h45.8l2-2.3c3-3.2 3.6-6.2 1.9-9.5-2.7-5.1-3.3-5.2-50.4-5.2-41.4 0-43.9.1-46.9 1.9zM71.4 258.4c-2.1 1.8-2.8 3.2-2.8 6.1 0 2.9.7 4.3 2.8 6.1l2.7 2.4h90.8l2.7-2.4c3.9-3.3 3.9-8.9 0-12.2l-2.7-2.4H74.1l-2.7 2.4zM71.2 301c-2.9 2.7-3.7 6.3-2 9.6 2.4 5.2 3.5 5.4 41.6 5.4 38.9 0 40-.2 42-6 1.3-3.5.8-5.6-2.1-8.8l-2-2.2H111c-36.4 0-37.7.1-39.8 2z" /></svg>
