<svg xmlns="http://www.w3.org/2000/svg" xml:space="preserve" viewBox="0 0 256 256"><path d="M89 30.872h-5.723V16.685a1 1 0 0 0-1.034-.999 60.812 60.812 0 0 0-12.554 1.749V6.489a.998.998 0 0 0-1.437-.9c-8.89 4.309-16.793 12.648-23.51 24.775-10.008-9.253-21.747-14.199-34.921-14.679a.954.954 0 0 0-.731.28 1 1 0 0 0-.306.72v7.33a80.626 80.626 0 0 0-4.22.4 1 1 0 0 0-.877 1.001l.047 5.456H0v53.639h89a1 1 0 0 0 1-1V31.872a1 1 0 0 0-1-1zm-7.723-13.144v49.546c-12.104.599-23.047 4.597-32.62 11.893 6.014-9.756 12.883-16.554 20.469-20.23a.999.999 0 0 0 .563-.899v-38.55a58.343 58.343 0 0 1 11.588-1.76zM67.689 8.127v49.291C59.575 61.524 52.293 69.006 46 79.693V32.215c6.254-11.569 13.544-19.663 21.689-24.088zM44 32.39v48.732c-.102-.058-.206-.112-.309-.17-9.529-8.42-20.581-13.019-32.907-13.675V24.922c0-.013.006-.024.005-.038 0-.007-.005-.013-.005-.02v-7.133C23.312 18.424 34.48 23.352 44 32.39zM8.784 26.017v42.216a1 1 0 0 0 .963.999c9.224.336 17.72 2.954 25.382 7.782-8.824-3.185-18.537-4.216-29.023-3.063l-.412-47.655a77.703 77.703 0 0 1 3.09-.279zM2 32.872h1.751l.366 42.211a.994.994 0 0 0 .341.743c.214.188.501.273.782.24 13.865-1.716 26.332.461 37.135 6.444H2V32.872zm86 49.639H47.668c10-8.366 21.642-12.831 34.643-13.278a1 1 0 0 0 .966-.999V32.872H88v49.639z" transform="translate(1.964 1.964) scale(2.8008)" fill="#fff" stroke-width="0" stroke-miterlimit="10"/></svg>
