<svg xmlns="http://www.w3.org/2000/svg" viewBox="0 0 252.1 221.3" xml:space="preserve"><path d="M249.3 71.1h-16V31.4c0-1.5-1.3-2.8-2.8-2.8h-.1c-11.9.4-23.6 2-35.2 4.9V2.8c0-1.5-1.2-2.8-2.8-2.8-.4 0-.9.1-1.2.3-24.9 12.1-47 35.4-65.8 69.4-28-25.9-60.9-39.8-97.8-41.1-.8 0-1.5.2-2 .8-.5.5-.9 1.3-.9 2v20.5c-3.9.3-7.9.6-11.8 1.1-1.4.2-2.5 1.4-2.5 2.8l.1 15.3H0v150.2h249.3c1.5 0 2.8-1.3 2.8-2.8V73.9c0-1.5-1.3-2.8-2.8-2.8zm-21.7-36.8v138.8c-33.9 1.7-64.6 12.9-91.4 33.3 16.8-27.3 36.1-46.4 57.3-56.7 1-.5 1.6-1.4 1.6-2.5v-108c10.7-2.7 21.6-4.4 32.5-4.9zm-38-26.9v138.1c-22.7 11.5-43.1 32.5-60.7 62.4v-133c17.5-32.4 37.9-55.1 60.7-67.5zm-66.4 67.9v136.5c-.3-.2-.6-.3-.9-.5-26.7-23.6-57.6-36.5-92.2-38.3V34.2c35.2 2 66.5 15.8 93.1 41.1zM24.6 57.5v118.2c0 1.5 1.2 2.7 2.7 2.8 25.8.9 49.6 8.3 71.1 21.8-24.7-8.9-51.9-11.8-81.3-8.6L15.9 58.3c2.9-.3 5.8-.6 8.7-.8zm-19 19.2h4.9l1 118.2c0 .8.4 1.6 1 2.1s1.4.8 2.2.7c38.8-4.8 73.8 1.3 104 18H5.6v-139zm240.9 139h-113c28-23.4 60.6-35.9 97-37.2 1.5-.1 2.7-1.3 2.7-2.8v-99h13.2v139z" fill="#1e3a8a"/></svg>
