<svg version="1.0" xmlns="http://www.w3.org/2000/svg" viewBox="0 0 512 512"><path fill="#fff" d="M295 2.1c-36.8 2.4-86.9 10.8-113.7 19-11.5 3.6-21.5 13.1-26.9 25.9-1.7 4-1.9 8-2.4 39.3l-.5 34.8L128 129c-26.5 8.8-48 17.5-71.5 29-22.6 11-36.9 19-42.3 23.7C5.6 189.1 0 201.8 0 213.5c0 5.4 23.5 95.8 30.6 117.8 22.8 70.4 76.6 130.2 143.9 160 13.8 6.1 44.6 17.3 53 19.3 11 2.5 30.5 1.6 41-2 16.9-5.7 26.2-13.1 45.3-35.9 20.8-24.9 29.7-37.9 40.8-60l6.4-12.8 6.5-3.4c8.3-4.3 37.1-24.6 49-34.5 49.7-41.3 82.2-99.4 92.7-165.5 2.2-13.4 2.3-16.7 2.3-79.5V51.5l-3.6-7.6c-4.3-9-11.5-16.6-19.1-20.3-6-2.9-31.6-9.3-52.3-13.1C392 2.3 339.4-.8 295 2.1zm88.6 18.4c8.3.8 20.3 2.2 26.5 3 23 3.2 64.1 12 70.2 15.1 4.5 2.3 9.5 7.2 12 11.9 2.2 4 2.2 4.3 2.2 66.5 0 67.8-.2 70.5-6 96.6-7.4 32.6-23.4 66.9-44.4 94.9-9.3 12.3-28.5 32.2-40.6 42-12.6 10.2-39.5 28.9-46 31.9-13.1 6.2-30.8 7.2-45 2.5-12.7-4.2-47.9-29.5-67.4-48.4-41.5-40.3-66.5-90.4-74.3-149-1-7.4-1.3-26-1.3-71.5 0-68.4-.4-64.1 6.9-71.8 4.5-4.9 9-6.9 22.8-10.1 35.7-8.5 60.5-12.1 106.3-15.5 11-.8 63.9.4 78.1 1.9zm-229.7 170c7.8 60.4 34.9 114.9 78.3 157.6l10.9 10.6-9.7 3.2c-16.1 5.2-27.3 6.9-65.6 10.1-20.1 1.6-37.1 3-37.8 3-.6 0-2.2 1.1-3.5 2.5-3 2.9-3.3 8.3-.7 11.3.9 1.1 22.2 11.3 47.3 22.6 50 22.5 53.7 23.7 65.2 21.7 8.1-1.4 17.5-6.1 22.9-11.4 2.4-2.3 8.7-10.4 14.1-18l9.9-13.8 3.1 2.1c11.9 8 28.1 13 41.9 13 4.8 0 8.8.3 8.8.8 0 1.5-11.8 21.1-18.2 30.3-8.4 12-31.2 39.3-37.4 44.8-6 5.2-18.5 11.6-26.1 13.1-3.4.7-10.1 1-16.3.8-10-.5-11.5-.8-30.5-7.7-23.4-8.5-49.9-21.2-64-30.6-28.8-19.4-51.9-42.5-71-71-8.2-12.3-22.2-40.4-27-54.4C44 317.9 17 217 17 213.3c0-9.5 5.3-17.4 15.6-23.4 29.1-17 64.9-32.9 101.4-45l17.5-5.8.6 21.2c.4 11.7 1.2 25.2 1.8 30.2zm110.9 184.7c3.1 2.3 5.9 4.3 6.1 4.5.7.4-18.6 26.7-22.1 30-1.8 1.8-5 3.9-7.1 4.8-4.5 1.9-13.9 2.1-18.2.5-4.7-1.8-54.9-24.3-55.8-25-.4-.4 7.9-1.4 18.5-2.3 29.4-2.6 44.4-5.7 62.3-13.1 4.4-1.9 8.6-3.4 9.3-3.5.7 0 3.9 1.8 7 4.1z"/><path fill="#fff" d="M251.5 129.4c-8.3 1.6-16.2 4.5-23 8.5-5.8 3.4-13.7 10-13.3 11.1.2.4 2.9 3.1 6 6l5.8 5.2 3.7-3c10.4-8.1 20.2-11.4 33.2-11.4 12.5 0 22.3 3.5 32.6 11.7l4 3.1 5.8-6.2 5.8-6.2-5.6-4.6c-6.6-5.4-17.7-11-25.8-13-8.7-2.2-21.2-2.7-29.2-1.2zM390.2 129.1c-12.1 1.8-25.6 8.1-34.6 16.1-2.2 2-3.9 3.8-3.6 4 .3.1 3.1 2.7 6.2 5.7l5.7 5.4 3.8-3c8.5-6.5 16.7-10 26-11.2 13.9-1.7 27 1.7 37.8 9.9l6.2 4.7 5.7-6.3 5.6-6.3-4.8-4.1c-5.6-4.9-18.5-11.4-26.4-13.4-7.8-2-20-2.6-27.6-1.5zM232.9 242c-2.3 1.4-4.2 6.5-3.5 9.4.8 3.2 76.8 65.6 84.1 69.1 2.8 1.3 8.1 2.9 11.8 3.6 8 1.5 17.1.2 25.2-3.6 2.9-1.4 21.9-16.2 44.2-34.4 42.1-34.5 42.2-34.5 38.9-40.9-2.9-5.6-3.1-5.6-43.9 1.9-40.7 7.4-53.2 8.7-69.9 7.2-6.8-.6-27.2-3.9-45.5-7.2-33.6-6.2-38.5-6.8-41.4-5.1zm52.7 24.6c38.9 7.2 54.3 7.2 93.8-.1 7.6-1.4 14-2.4 14.2-2.2.6.6-45.7 37.9-50.4 40.5-6.1 3.5-15.7 3.6-21.9.4-3.3-1.7-43.5-33.6-50.3-39.8-1.9-1.8-1.5-1.8 14.6 1.2zM123.5 267.4c-13.2 2.6-24.2 7.9-33.4 16.2-6.2 5.6-14.4 16.2-13.5 17.5.3.5 3.6 2.5 7.3 4.4l6.8 3.4 4.9-6.2c13.4-16.8 36.3-23.4 56.4-16.3 4.1 1.5 8.1 2.8 8.9 2.9.8.1 3-2.7 5.2-6.8l3.8-7-3.2-1.7c-11.5-6.2-30.1-8.9-43.2-6.4z"/></svg>
